<?xml version="1.0" encoding="UTF-8"?>
<svg version="1.1" xmlns="http://www.w3.org/2000/svg" width="1080" height="1080">
<path d="M0 0 C0.91315475 0.36977966 1.82630951 0.73955933 2.76713562 1.12054443 C4.77031702 1.93330762 6.77125243 2.75162287 8.77020264 3.57473755 C13.1950062 5.396379 17.63078063 7.1906271 22.06567383 8.98753357 C24.47787568 9.96540109 26.88948139 10.94474025 29.30053711 11.9254303 C42.62502037 17.34467779 55.99631006 22.64499675 69.3694458 27.94277954 C73.69013123 29.65450225 78.00996037 31.36837823 82.32958984 33.08276367 C83.05207161 33.3694992 83.77455338 33.65623472 84.51892853 33.9516592 C85.98371255 34.53299891 87.44849527 35.11434193 88.91327667 35.69568825 C91.85768904 36.86418129 94.80222331 38.03236696 97.74675751 39.20055294 C107.17041217 42.93923424 116.59320612 46.68008044 126.015625 50.421875 C126.72182228 50.7023147 127.42801956 50.9827544 128.15561676 51.27169228 C131.00168757 52.40190544 133.84775507 53.53212694 136.69381714 54.6623621 C160.55097461 64.1365446 184.40965096 73.60689573 208.26953125 83.07421875 C229.99976823 91.69652407 251.72893205 100.32152761 273.45703125 108.94921875 C274.16182491 109.22907372 274.86661858 109.50892868 275.59276962 109.7972641 C287.03541258 114.34084105 298.47798426 118.8845975 309.92054749 123.42837524 C318.50824779 126.83850114 327.0959604 130.24859604 335.68371487 133.65858555 C339.22808885 135.06597158 342.77245523 136.47337676 346.31680298 137.88082886 C361.15999325 143.77500337 376.0036925 149.66788879 390.84919548 155.55623627 C392.98530047 156.40351827 395.12138456 157.25085296 397.25746155 158.09820557 C398.66146833 158.65515181 400.06547529 159.21209762 401.46948242 159.76904297 C402.15727185 160.04187859 402.84506128 160.3147142 403.55369282 160.59581757 C406.86102106 161.90774261 410.16841677 163.21949698 413.47598267 164.53082275 C414.70247528 165.01710144 415.9289679 165.50338013 417.19262695 166.00439453 C418.40032242 166.48314026 419.60801788 166.96188599 420.85231018 167.45513916 C423.22589658 168.39725541 425.59882638 169.34102782 427.97105408 170.28656006 C433.64407449 172.54728889 439.32165214 174.79372158 445.017416 176.99646282 C447.80780765 178.07734934 450.5944828 179.1676211 453.38074112 180.2591114 C454.71570553 180.77931075 456.05236505 181.29518325 457.39077377 181.80645561 C459.24413594 182.51487484 461.09122693 183.23963517 462.93798828 183.96508789 C463.99374054 184.37328262 465.0494928 184.78147736 466.13723755 185.20204163 C468.96241274 186.67476512 470.18262187 187.83971779 471.76953125 190.57421875 C472.14453125 193.13671875 472.14453125 193.13671875 471.76953125 195.57421875 C468.84454969 199.0555784 465.06384991 200.24403941 460.9140625 201.8046875 C460.11781967 202.11174118 459.32157684 202.41879486 458.50120544 202.7351532 C456.77290695 203.40080281 455.04323688 204.06289967 453.31237793 204.72186279 C448.6264195 206.50651594 443.95086602 208.31813732 439.2734375 210.125 C438.31009491 210.49625 437.34675232 210.8675 436.35421753 211.25 C426.8781173 214.90575239 417.44463973 218.66429805 408.01953125 222.44921875 C406.4006506 223.09867229 404.78175403 223.74808614 403.1628418 224.39746094 C400.67960133 225.39372507 398.19644633 226.39020011 395.71351624 227.38723755 C388.92012614 230.11474744 382.12267738 232.83202629 375.32421875 235.546875 C373.2327433 236.38231397 371.14127192 237.21776311 369.04980469 238.05322266 C365.98749154 239.27646951 362.92510023 240.49951835 359.86242676 241.72186279 C357.0420803 242.8476333 354.22216464 243.97447634 351.40234375 245.1015625 C350.55541962 245.43930191 349.70849548 245.77704132 348.83590698 246.12501526 C347.67600754 246.58894936 347.67600754 246.58894936 346.49267578 247.06225586 C345.81834503 247.33154404 345.14401428 247.60083221 344.44924927 247.87828064 C343.20152483 248.39523585 341.97752429 248.97022223 340.76953125 249.57421875 C357.5218185 256.29915789 374.28719681 262.9909575 391.06640625 269.6484375 C391.73967894 269.91557241 392.41295162 270.18270733 393.10662651 270.45793724 C399.2613977 272.89980336 405.41643877 275.34098847 411.572052 277.7807312 C412.2218613 278.03828784 412.87167059 278.29584448 413.54117107 278.56120586 C414.84679984 279.07866651 416.15245436 279.59606221 417.45813465 280.11339283 C420.68148726 281.39082466 423.90408362 282.67010489 427.12513733 283.95332336 C433.12430904 286.34222085 439.12719848 288.71895711 445.14968967 291.04857063 C447.94297749 292.13068843 450.73259958 293.22206268 453.52179527 294.31467819 C454.8488292 294.83175301 456.1775583 295.34450068 457.50803566 295.85264969 C459.34647033 296.55521692 461.17865346 297.27407737 463.01049805 297.99365234 C464.05312302 298.39667572 465.09574799 298.7996991 466.16996765 299.2149353 C468.97478055 300.68154137 470.18906067 301.85899554 471.76953125 304.57421875 C472.14453125 307.13671875 472.14453125 307.13671875 471.76953125 309.57421875 C468.84454969 313.0555784 465.06384991 314.24403941 460.9140625 315.8046875 C460.11781967 316.11174118 459.32157684 316.41879486 458.50120544 316.7351532 C456.77290695 317.40080281 455.04323688 318.06289967 453.31237793 318.72186279 C448.6264195 320.50651594 443.95086602 322.31813732 439.2734375 324.125 C438.31009491 324.49625 437.34675232 324.8675 436.35421753 325.25 C426.8781173 328.90575239 417.44463973 332.66429805 408.01953125 336.44921875 C406.4006506 337.09867229 404.78175403 337.74808614 403.1628418 338.39746094 C400.67960133 339.39372507 398.19644633 340.39020011 395.71351624 341.38723755 C388.92012614 344.11474744 382.12267738 346.83202629 375.32421875 349.546875 C373.2327433 350.38231397 371.14127192 351.21776311 369.04980469 352.05322266 C365.98749154 353.27646951 362.92510023 354.49951835 359.86242676 355.72186279 C357.0420803 356.8476333 354.22216464 357.97447634 351.40234375 359.1015625 C350.55541962 359.43930191 349.70849548 359.77704132 348.83590698 360.12501526 C347.67600754 360.58894936 347.67600754 360.58894936 346.49267578 361.06225586 C345.81834503 361.33154404 345.14401428 361.60083221 344.44924927 361.87828064 C343.20152483 362.39523585 341.97752429 362.97022223 340.76953125 363.57421875 C357.5218185 370.29915789 374.28719681 376.9909575 391.06640625 383.6484375 C391.73967894 383.91557241 392.41295162 384.18270733 393.10662651 384.45793724 C399.2613977 386.89980336 405.41643877 389.34098847 411.572052 391.7807312 C412.2218613 392.03828784 412.87167059 392.29584448 413.54117107 392.56120586 C414.84679984 393.07866651 416.15245436 393.59606221 417.45813465 394.11339283 C420.68148726 395.39082466 423.90408362 396.67010489 427.12513733 397.95332336 C433.12430904 400.34222085 439.12719848 402.71895711 445.14968967 405.04857063 C447.94297749 406.13068843 450.73259958 407.22206268 453.52179527 408.31467819 C454.8488292 408.83175301 456.1775583 409.34450068 457.50803566 409.85264969 C459.34647033 410.55521692 461.17865346 411.27407737 463.01049805 411.99365234 C464.05312302 412.39667572 465.09574799 412.7996991 466.16996765 413.2149353 C468.98198404 414.68530799 470.22358308 415.82344956 471.76953125 418.57421875 C471.78222656 421.63427734 471.78222656 421.63427734 470.76953125 424.57421875 C468.53027344 426.28369141 468.53027344 426.28369141 465.56640625 427.61328125 C464.47263672 428.10989258 463.37886719 428.60650391 462.25195312 429.11816406 C456.54545184 431.5041409 450.80856287 433.77110321 445.01953125 435.94921875 C442.23149783 437.01152308 439.44571371 438.0796599 436.66015625 439.1484375 C435.93397095 439.42663834 435.20778564 439.70483917 434.45959473 439.99147034 C426.19611186 443.16468542 417.98310975 446.46197834 409.76953125 449.76171875 C393.2021775 456.41060022 376.6161538 463.01180066 360.02170181 469.59270859 C358.01000138 470.39049806 355.99832847 471.18835689 353.98666382 471.98623657 C348.47355164 474.17287088 342.9604133 476.35943919 337.44718933 478.54579163 C322.69857158 484.39472995 307.9524314 490.24990437 293.20649338 496.10559464 C289.65143652 497.51730806 286.0963469 498.92893899 282.54125977 500.34057617 C273.95065193 503.75171062 265.3600884 507.16295664 256.76953125 510.57421875 C245.33206572 515.11597222 233.89457832 519.65767063 222.45703125 524.19921875 C221.75183475 524.47923485 221.04663826 524.75925095 220.32007217 525.04775238 C198.65566337 533.65012762 176.99001007 542.2493621 155.3234787 550.84638977 C138.50202685 557.52096106 121.68067779 564.19579105 104.86120605 570.87535095 C98.49620195 573.40303642 92.13101308 575.93024664 85.76443863 578.45397472 C82.23860475 579.85165592 78.71299421 581.24989976 75.1875 582.6484375 C74.48608383 582.92667421 73.78466766 583.20491093 73.06199646 583.49157906 C63.16754105 587.41774368 53.28366575 591.36965076 43.40635681 595.33874512 C37.8628849 597.56620793 32.31675195 599.78701002 26.77000904 602.00631332 C22.23824018 603.82024558 17.71019712 605.64309939 13.18472195 607.47267246 C10.39421188 608.59833105 7.6003233 609.71540022 4.80542564 610.83011436 C3.51148979 611.34824192 2.21898207 611.86995271 0.92804909 612.39551735 C-0.83952944 613.11460044 -2.61276833 613.81972234 -4.38623047 614.52416992 C-5.37581757 614.92238449 -6.36540466 615.32059906 -7.38497925 615.73088074 C-12.97173891 617.38666853 -16.96396973 616.5800821 -22.26708984 614.39086914 C-23.43768951 613.91443466 -24.60828918 613.43800018 -25.81436157 612.9471283 C-27.08588739 612.41790344 -28.35740195 611.88865154 -29.62890625 611.359375 C-30.96870868 610.81100843 -32.30900051 610.26383624 -33.64974976 609.7177887 C-36.44967333 608.57682759 -39.24776362 607.43152814 -42.0447998 606.2835083 C-47.91509017 603.87977183 -53.81234076 601.54454824 -59.71070099 599.21075058 C-62.33234976 598.17306395 -64.95285212 597.13249814 -67.57339096 596.09201241 C-69.60268845 595.2863181 -71.63213368 594.48099702 -73.66162109 593.67578125 C-78.02197177 591.94572026 -82.38209276 590.21508089 -86.7421875 588.484375 C-92.09972682 586.35777926 -97.45731423 584.23130475 -102.81496811 582.10499763 C-112.33663245 578.32609218 -121.8578945 574.54617435 -131.37890625 570.765625 C-132.07583525 570.48889261 -132.77276424 570.21216022 -133.4908123 569.92704201 C-136.29983724 568.81164604 -139.10885911 567.69624237 -141.91787624 566.58082676 C-146.84862466 564.62290614 -151.77940463 562.66506498 -156.71020508 560.70727539 C-157.41120236 560.42894206 -158.11219965 560.15060873 -158.83443928 559.86384106 C-160.25139613 559.30123381 -161.66835303 558.73862668 -163.08530998 558.17601967 C-174.47625739 553.65320106 -185.86712448 549.13018024 -197.25792313 544.606987 C-203.68625507 542.05435579 -210.11460573 539.50177171 -216.54296875 536.94921875 C-217.24849884 536.66906921 -217.95402893 536.38891968 -218.68093872 536.10028076 C-239.69638596 527.75558091 -260.71295894 519.41372222 -281.73046875 511.07421875 C-306.29704065 501.32648872 -330.862234 491.57529144 -355.42602539 481.82055664 C-358.27229553 480.69026025 -361.11856882 479.5599718 -363.96484375 478.4296875 C-364.6709976 478.14926416 -365.37715145 477.86884083 -366.1047039 477.57991982 C-374.1104341 474.40078162 -382.11643756 471.22233371 -390.12304688 468.04541016 C-390.86041675 467.75283042 -391.59778662 467.46025068 -392.35750103 467.15880489 C-395.33299405 465.97818582 -398.30849611 464.79758955 -401.28403664 463.61709023 C-409.25899384 460.45313122 -417.2333877 457.28777193 -425.20581055 454.11743164 C-427.28927876 453.28899049 -429.37275238 452.46056294 -431.45623207 451.63215065 C-432.81865207 451.09042854 -434.18105733 450.54866934 -435.54344749 450.00687218 C-443.68466966 446.76971849 -451.83121227 443.54677802 -459.98634338 440.34477234 C-464.25827413 438.66635992 -468.52724074 436.98050019 -472.79568481 435.29324341 C-474.72688061 434.53220764 -476.6595271 433.7748412 -478.59371948 433.02145386 C-481.19515772 432.00796165 -483.791381 430.98211754 -486.38671875 429.953125 C-487.1342189 429.66587555 -487.88171906 429.3786261 -488.65187073 429.08267212 C-492.60850666 427.49738463 -495.61307098 425.99836606 -498.23046875 422.57421875 C-498.29296875 419.51171875 -498.29296875 419.51171875 -497.23046875 416.57421875 C-494.05441716 414.38683517 -490.76050568 412.86346616 -487.18652344 411.44311523 C-486.19313965 411.04583725 -485.19975586 410.64855927 -484.17626953 410.23924255 C-483.09587402 409.81224564 -482.01547852 409.38524872 -480.90234375 408.9453125 C-479.75266113 408.4868544 -478.60297852 408.0283963 -477.41845703 407.55604553 C-474.91818823 406.55967053 -472.41735845 405.56487537 -469.91540527 404.57275391 C-465.94747022 402.99929384 -461.98184517 401.42007207 -458.01660156 399.83984375 C-453.83191768 398.17249819 -449.64705151 396.50561638 -445.46136475 394.84078979 C-434.90045251 390.6401576 -424.3451334 386.42568115 -413.79296875 382.203125 C-413.04174995 381.90252104 -412.29053116 381.60191708 -411.51654816 381.2922039 C-407.79632313 379.80346415 -404.07617986 378.31452022 -400.3560791 376.82546997 C-393.99100922 374.27781188 -387.62526728 371.73183404 -381.259552 369.18578911 C-378.25471366 367.98395229 -375.24991686 366.78201163 -372.24511719 365.58007812 C-370.57356771 364.91145833 -368.90201823 364.24283854 -367.23046875 363.57421875 C-372.99647658 360.91789992 -378.74218631 358.27866968 -384.6796875 356.0234375 C-385.83549316 355.58112793 -386.99129883 355.13881836 -388.18212891 354.68310547 C-389.41495605 354.21404785 -390.6477832 353.74499023 -391.91796875 353.26171875 C-394.69139448 352.19865299 -397.46317543 351.13135432 -400.234375 350.0625 C-400.95993591 349.78265259 -401.68549683 349.50280518 -402.43304443 349.21447754 C-412.77034148 345.21729527 -423.05300341 341.0822097 -433.33569336 336.94702148 C-435.03757072 336.26279107 -436.73947537 335.57862853 -438.44140625 334.89453125 C-439.72710258 334.37763481 -439.72710258 334.37763481 -441.03877258 333.85029602 C-446.84487036 331.52019247 -452.66178511 329.21887135 -458.48519897 326.93240356 C-462.6409656 325.30000318 -466.79368176 323.65992035 -470.94622803 322.01934814 C-472.95735141 321.22720511 -474.96991457 320.43870706 -476.98394775 319.6539917 C-479.79389265 318.55869275 -482.59850786 317.45066989 -485.40234375 316.33984375 C-486.23899567 316.01756805 -487.07564758 315.69529236 -487.93765259 315.36325073 C-492.10413457 313.69764579 -495.47212657 312.28972608 -498.23046875 308.57421875 C-498.29296875 305.51171875 -498.29296875 305.51171875 -497.23046875 302.57421875 C-494.05441716 300.38683517 -490.76050568 298.86346616 -487.18652344 297.44311523 C-486.19313965 297.04583725 -485.19975586 296.64855927 -484.17626953 296.23924255 C-483.09587402 295.81224564 -482.01547852 295.38524872 -480.90234375 294.9453125 C-479.75266113 294.4868544 -478.60297852 294.0283963 -477.41845703 293.55604553 C-474.91818823 292.55967053 -472.41735845 291.56487537 -469.91540527 290.57275391 C-465.94747022 288.99929384 -461.98184517 287.42007207 -458.01660156 285.83984375 C-453.83191768 284.17249819 -449.64705151 282.50561638 -445.46136475 280.84078979 C-434.90045251 276.6401576 -424.3451334 272.42568115 -413.79296875 268.203125 C-413.04174995 267.90252104 -412.29053116 267.60191708 -411.51654816 267.2922039 C-407.79632313 265.80346415 -404.07617986 264.31452022 -400.3560791 262.82546997 C-393.99100922 260.27781188 -387.62526728 257.73183404 -381.259552 255.18578911 C-378.25471366 253.98395229 -375.24991686 252.78201163 -372.24511719 251.58007812 C-370.57356771 250.91145833 -368.90201823 250.24283854 -367.23046875 249.57421875 C-372.99647658 246.91789992 -378.74218631 244.27866968 -384.6796875 242.0234375 C-385.83549316 241.58112793 -386.99129883 241.13881836 -388.18212891 240.68310547 C-389.41495605 240.21404785 -390.6477832 239.74499023 -391.91796875 239.26171875 C-394.69139448 238.19865299 -397.46317543 237.13135432 -400.234375 236.0625 C-400.95993591 235.78265259 -401.68549683 235.50280518 -402.43304443 235.21447754 C-412.77034148 231.21729527 -423.05300341 227.0822097 -433.33569336 222.94702148 C-435.03757072 222.26279107 -436.73947537 221.57862853 -438.44140625 220.89453125 C-439.29853714 220.54993362 -440.15566803 220.205336 -441.03877258 219.85029602 C-446.84487036 217.52019247 -452.66178511 215.21887135 -458.48519897 212.93240356 C-462.6409656 211.30000318 -466.79368176 209.65992035 -470.94622803 208.01934814 C-472.95735141 207.22720511 -474.96991457 206.43870706 -476.98394775 205.6539917 C-479.79389265 204.55869275 -482.59850786 203.45066989 -485.40234375 202.33984375 C-486.23899567 202.01756805 -487.07564758 201.69529236 -487.93765259 201.36325073 C-492.10413457 199.69764579 -495.47212657 198.28972608 -498.23046875 194.57421875 C-498.29296875 191.51171875 -498.29296875 191.51171875 -497.23046875 188.57421875 C-494.06832865 186.39789953 -490.79095963 184.87494551 -487.23413086 183.45898438 C-486.24999207 183.06476791 -485.26585327 182.67055145 -484.25189209 182.26438904 C-483.18134583 181.84069534 -482.11079956 181.41700165 -481.0078125 180.98046875 C-479.86918762 180.52587784 -478.73056274 180.07128693 -477.55743408 179.60292053 C-474.42208866 178.35221737 -471.28523511 177.10544159 -468.14764023 175.86040115 C-464.79357552 174.52840911 -461.44148208 173.19147283 -458.08911133 171.85522461 C-450.92549294 169.00094689 -443.75932123 166.1531219 -436.5925293 163.30682373 C-432.31193786 161.60675766 -428.03188705 159.90533384 -423.75195312 158.20361328 C-406.00539822 151.14792874 -388.25467742 144.10277253 -370.50224781 137.06188393 C-363.10530978 134.12808909 -355.70887112 131.19303624 -348.3125 128.2578125 C-347.00870778 127.74041215 -345.70491546 127.22301204 -344.40112305 126.70561218 C-342.45336931 125.93266034 -340.50561611 125.15970714 -338.55786514 124.38674831 C-334.01958167 122.58575515 -329.48123909 120.78491102 -324.94287109 118.98413086 C-305.80854282 111.39174744 -286.67545039 103.79625432 -267.54296875 96.19921875 C-266.83817509 95.91936378 -266.13338142 95.63950882 -265.40723038 95.3511734 C-254.68159783 91.0923027 -243.95602657 86.83327766 -233.23046875 82.57421875 C-221.79300322 78.03246528 -210.35551582 73.49076687 -198.91796875 68.94921875 C-197.86017401 68.5291946 -197.86017401 68.5291946 -196.78100967 68.10068512 C-180.96915568 61.82220771 -165.15700854 55.54447039 -149.34375 49.26953125 C-148.6959193 49.01246147 -148.04808861 48.75539169 -147.38062668 48.49053192 C-140.91065219 45.92316183 -134.44061825 43.35594165 -127.97048378 40.78897476 C-114.02941068 35.25793365 -100.08934097 29.7243801 -86.15110397 24.18619537 C-83.81394893 23.25758604 -81.47675973 22.32906274 -79.13955688 21.40057373 C-78.37369577 21.09632351 -77.60783466 20.79207329 -76.81876564 20.47860336 C-75.28137181 19.86785347 -73.74397634 19.25710771 -72.20657921 18.64636612 C-68.48490336 17.16785219 -64.76332933 15.68908304 -61.04199219 14.2097168 C-60.33460089 13.92852116 -59.62720959 13.64732552 -58.89838219 13.3576088 C-57.49986999 12.80168474 -56.10137251 12.24572369 -54.7028904 11.68972397 C-51.39166271 10.37367169 -48.07970708 9.05951552 -44.76596069 7.74981689 C-39.34745023 5.60792644 -33.93301995 3.46004503 -28.54150391 1.25097656 C-27.71016434 0.91490387 -26.87882477 0.57883118 -26.02229309 0.23257446 C-24.56281486 -0.35779084 -23.10680464 -0.95686614 -21.6558075 -1.56777954 C-13.4721041 -4.84788339 -7.73960348 -3.23462707 0 0 Z M-21.8046875 12.0546875 C-22.48600235 12.33003326 -23.1673172 12.60537903 -23.86927795 12.8890686 C-25.39537171 13.50656246 -26.92020167 14.12718593 -28.44396973 14.75039673 C-32.9174971 16.57908651 -37.40120816 18.38262418 -41.8828125 20.19140625 C-42.90061798 20.60298477 -43.91842346 21.01456329 -44.96707153 21.43861389 C-58.38776109 26.86092403 -71.84524908 32.19079804 -85.29946899 37.52920532 C-90.03813555 39.40944621 -94.77631479 41.29091296 -99.5144043 43.17260742 C-105.94631218 45.72691432 -112.37834911 48.2808958 -118.81054688 50.83447266 C-127.00396691 54.08725608 -135.19725934 57.34036075 -143.39048958 60.59362221 C-146.88979762 61.98308089 -150.38911185 63.37252397 -153.88842773 64.76196289 C-154.57681449 65.03529418 -155.26520124 65.30862547 -155.9744482 65.59023952 C-160.15964657 67.25200814 -164.34486869 68.91371692 -168.53010845 70.57538128 C-189.82702905 79.03089299 -211.12283641 87.48920438 -232.41796875 95.94921875 C-233.17432491 96.24969872 -233.93068108 96.55017868 -234.70995712 96.8597641 C-246.2168366 101.4311426 -257.72365895 106.00266486 -269.23046875 110.57421875 C-337.22505444 137.58786702 -405.22373191 164.59117403 -473.23046875 191.57421875 C-473.23046875 192.23421875 -473.23046875 192.89421875 -473.23046875 193.57421875 C-472.4276799 193.89224205 -472.4276799 193.89224205 -471.6086731 194.21669006 C-465.70204106 196.55661521 -459.79546567 198.8966833 -453.88891602 201.23681641 C-451.5336216 202.16995108 -449.17831561 203.10305656 -446.82299805 204.03613281 C-433.29474569 209.39549764 -419.76731211 214.75690916 -406.24245834 220.1248455 C-404.26299568 220.91045508 -402.28349749 221.69597505 -400.3039856 222.48146057 C-399.65697882 222.73819896 -399.00997204 222.99493734 -398.34335899 223.25945568 C-397.04814481 223.77340644 -395.75292921 224.28735363 -394.45771217 224.80129719 C-391.29817288 226.0550636 -388.1387446 227.30910838 -384.97955322 228.56375122 C-381.42801554 229.97409709 -377.87614626 231.38360499 -374.32421875 232.79296875 C-373.2907431 233.20365097 -372.25726746 233.61433319 -371.19247437 234.03746033 C-369.21690762 234.82100765 -367.23961946 235.60023097 -365.26049805 236.37475586 C-363.08701572 237.23514734 -360.92274786 238.11895659 -358.76489258 239.01782227 C-357.61722412 239.48567139 -356.46955566 239.95352051 -355.28710938 240.43554688 C-354.24768188 240.86806763 -353.20825439 241.30058838 -352.1373291 241.74621582 C-346.57719477 243.32998902 -341.88609062 240.78134497 -336.7265625 238.70703125 C-335.9662674 238.40539062 -335.20597229 238.10375 -334.42263794 237.79296875 C-331.83615208 236.76568462 -329.25211794 235.73236538 -326.66796875 234.69921875 C-324.77807807 233.9473399 -322.88801681 233.19588969 -320.99780273 232.44482422 C-316.76168203 230.76091731 -312.52654751 229.07455818 -308.29199219 227.38671875 C-300.74560271 224.37974459 -293.19529559 221.38268494 -285.64453125 218.38671875 C-282.87922034 217.28941682 -280.11392418 216.19207772 -277.34863281 215.09472656 C-276.65020515 214.81757435 -275.9517775 214.54042213 -275.23218536 214.25487137 C-267.19706884 211.06618313 -259.16297361 207.87492427 -251.12890625 204.68359375 C-248.13769837 203.49543501 -245.14648683 202.3072855 -242.15527344 201.11914062 C-241.41515266 200.82515507 -240.67503189 200.53116951 -239.91248322 200.2282753 C-226.95703225 195.08228194 -214.00089019 189.93802873 -201.04478073 184.79369354 C-198.91332286 183.94737405 -196.78187115 183.10103903 -194.65042114 182.25469971 C-179.54874472 176.25826428 -164.44675111 170.26262954 -149.34375 164.26953125 C-148.6959193 164.01246147 -148.04808861 163.75539169 -147.38062668 163.49053192 C-140.91065219 160.92316183 -134.44061825 158.35594165 -127.97048378 155.78897476 C-114.02941068 150.25793365 -100.08934097 144.7243801 -86.15110397 139.18619537 C-83.81394893 138.25758604 -81.47675973 137.32906274 -79.13955688 136.40057373 C-78.37369577 136.09632351 -77.60783466 135.79207329 -76.81876564 135.47860336 C-75.28137181 134.86785347 -73.74397634 134.25710771 -72.20657921 133.64636612 C-68.48490336 132.16785219 -64.76332933 130.68908304 -61.04199219 129.2097168 C-60.33460089 128.92852116 -59.62720959 128.64732552 -58.89838219 128.3576088 C-57.49986999 127.80168474 -56.10137251 127.24572369 -54.7028904 126.68972397 C-51.39166271 125.37367169 -48.07970708 124.05951552 -44.76596069 122.74981689 C-39.34745023 120.60792644 -33.93301995 118.46004503 -28.54150391 116.25097656 C-27.71016434 115.91490387 -26.87882477 115.57883118 -26.02229309 115.23257446 C-24.56281486 114.64220916 -23.10680464 114.04313386 -21.6558075 113.43222046 C-13.4721041 110.15211661 -7.73960348 111.76537293 0 115 C0.91315475 115.36977966 1.82630951 115.73955933 2.76713562 116.12054443 C4.77031702 116.93330762 6.77125243 117.75162287 8.77020264 118.57473755 C13.1950062 120.396379 17.63078063 122.1906271 22.06567383 123.98753357 C24.47787568 124.96540109 26.88948139 125.94474025 29.30053711 126.9254303 C42.62502037 132.34467779 55.99631006 137.64499675 69.3694458 142.94277954 C73.69013123 144.65450225 78.00996037 146.36837823 82.32958984 148.08276367 C83.05207161 148.3694992 83.77455338 148.65623472 84.51892853 148.9516592 C85.98371255 149.53299891 87.44849527 150.11434193 88.91327667 150.69568825 C91.85768904 151.86418129 94.80222331 153.03236696 97.74675751 154.20055294 C107.17041217 157.93923424 116.59320612 161.68008044 126.015625 165.421875 C127.07492092 165.84253455 127.07492092 165.84253455 128.15561676 166.27169228 C131.00168757 167.40190544 133.84775507 168.53212694 136.69381714 169.6623621 C155.34712437 177.06998546 174.00098535 184.47621369 192.65625 191.87890625 C193.30418455 192.13601757 193.9521191 192.39312889 194.61968803 192.65803146 C201.08687819 195.2243006 207.55412837 197.79041837 214.02149105 200.35625267 C228.01637061 205.9085708 242.01015919 211.46361991 256.00203705 217.02349854 C258.35868878 217.95991463 260.71537797 218.89623637 263.07208252 219.83251953 C263.84341648 220.13895889 264.61475044 220.44539825 265.40945816 220.76112366 C266.95713231 221.37598652 268.50480839 221.99084453 270.05248642 222.60569763 C274.53870465 224.38802505 279.02467113 226.17098422 283.51044655 227.95442581 C286.29765447 229.06238557 289.08509813 230.16975133 291.87260056 231.27696991 C293.76101648 232.02727415 295.64914553 232.77830033 297.53726196 233.52935791 C299.82972237 234.43971636 302.12389239 235.34578482 304.41998291 236.24694824 C306.73719374 237.16515132 309.04582222 238.10520283 311.34710693 239.06262207 C312.49568176 239.53083374 313.64425659 239.99904541 314.82763672 240.48144531 C316.36192825 241.12028656 316.36192825 241.12028656 317.92721558 241.77203369 C323.55073643 243.35915663 328.41377834 240.6610306 333.625 238.56640625 C334.41481262 238.25296768 335.20462524 237.93952911 336.01837158 237.61659241 C338.66617839 236.56474381 341.31156568 235.50694043 343.95703125 234.44921875 C345.83780391 233.70083067 347.7187491 232.95287606 349.59985352 232.20532227 C353.7242412 230.56573192 357.84772202 228.92388572 361.97070312 227.28076172 C369.24912502 224.38151035 376.53246856 221.49472998 383.81640625 218.609375 C385.1054565 218.0986811 386.39450374 217.58797959 387.68354797 217.07727051 C389.61565198 216.31179282 391.54775715 215.54631806 393.4798708 214.78086472 C411.25396928 207.73908325 429.0242492 200.68835842 446.76953125 193.57421875 C446.76953125 192.91421875 446.76953125 192.25421875 446.76953125 191.57421875 C410.36180696 176.96813375 410.36180696 176.96813375 373.89453125 162.51171875 C355.73359857 155.3622046 337.59486826 148.15706508 319.45703125 140.94921875 C317.87686209 140.32129794 316.29669241 139.69337843 314.71652222 139.06546021 C307.45375604 136.1793821 300.1910856 133.29306316 292.92849064 130.40655422 C277.36486942 124.22083002 261.80028878 118.03752127 246.23563004 111.85440826 C243.95032379 110.94655416 241.66502561 110.03867976 239.37973022 109.13079834 C216.11071051 99.88670078 192.84041686 90.64581518 169.56942749 81.40667725 C145.95143146 72.02974179 122.33499548 62.64888354 98.71920776 53.26638794 C81.61296982 46.47013577 64.50629317 39.67499157 47.3984375 32.8828125 C46.21601282 32.41335897 46.21601282 32.41335897 45.00970078 31.93442154 C37.42036321 28.92126264 29.83098162 25.90821473 22.24144077 22.89556789 C19.4900679 21.80339269 16.73873471 20.71111758 13.98740959 19.6188221 C12.12718775 18.88034393 10.26691073 18.14200478 8.40663147 17.40367126 C7.27865646 16.95584793 6.15068146 16.5080246 4.98852539 16.04663086 C3.93174591 15.62888397 2.87496643 15.21113708 1.78616333 14.7807312 C-0.19320437 13.98907623 -2.16662007 13.18233893 -4.13308716 12.35916138 C-5.01672943 11.9912851 -5.9003717 11.62340881 -6.81079102 11.24438477 C-7.57263199 10.92075455 -8.33447296 10.59712433 -9.11940002 10.26368713 C-13.94395759 8.68800186 -17.33416676 10.23022601 -21.8046875 12.0546875 Z M-21.8046875 126.0546875 C-22.48600235 126.33003326 -23.1673172 126.60537903 -23.86927795 126.8890686 C-25.39537171 127.50656246 -26.92020167 128.12718593 -28.44396973 128.75039673 C-32.9174971 130.57908651 -37.40120816 132.38262418 -41.8828125 134.19140625 C-42.90061798 134.60298477 -43.91842346 135.01456329 -44.96707153 135.43861389 C-58.38776109 140.86092403 -71.84524908 146.19079804 -85.29946899 151.52920532 C-90.03813555 153.40944621 -94.77631479 155.29091296 -99.5144043 157.17260742 C-105.94631218 159.72691432 -112.37834911 162.2808958 -118.81054688 164.83447266 C-127.00389284 168.08722667 -135.19711066 171.3403033 -143.39026642 174.59353638 C-146.19337517 175.70655381 -148.99649274 176.81954904 -151.79961014 177.93254471 C-157.36950403 180.14410753 -162.93938574 182.35570106 -168.50924301 184.56735611 C-171.31590963 185.68181413 -174.12258052 186.79626136 -176.92925262 187.91070557 C-178.33833701 188.47021148 -179.74742006 189.02972076 -181.15650177 189.5892334 C-189.21346915 192.78844756 -197.27061853 195.98720239 -205.328125 199.18505859 C-214.62921856 202.87649216 -223.9300438 206.56860095 -233.23046875 210.26171875 C-233.98793774 210.5625021 -234.74540672 210.86328545 -235.52582932 211.17318344 C-266.78257066 223.58561666 -298.01287944 236.06366725 -329.23046875 248.57421875 C-329.23046875 249.23421875 -329.23046875 249.89421875 -329.23046875 250.57421875 C-298.33795539 262.97981732 -267.41525216 275.29971973 -236.41210938 287.42626953 C-235.28145554 287.86898697 -234.1508017 288.31170441 -232.98588562 288.76783752 C-230.8987992 289.5849024 -228.8112862 290.40087902 -226.72322083 291.21543884 C-225.77855453 291.58528397 -224.83388824 291.95512909 -223.8605957 292.33618164 C-222.94162506 292.69398712 -222.02265442 293.0517926 -221.07583618 293.42044067 C-219.05380511 294.24036118 -217.05004184 295.10597852 -215.06063843 296.00216675 C-213.48991074 296.70383469 -213.48991074 296.70383469 -211.88745117 297.41967773 C-210.47673592 298.07189552 -210.47673592 298.07189552 -209.03752136 298.73728943 C-203.71146647 300.32526519 -199.16761297 298.32007987 -194.203125 296.29296875 C-193.60850464 296.05258377 -193.01388428 295.81219879 -192.40124512 295.56452942 C-191.07724578 295.0286543 -189.75434936 294.49004836 -188.43240356 293.9491272 C-184.53723422 292.35622213 -180.63292359 290.78588809 -176.73046875 289.2109375 C-175.84782852 288.85404343 -174.96518829 288.49714935 -174.05580139 288.12944031 C-161.98895658 283.25479644 -149.88567705 278.47148262 -137.78684235 273.67696381 C-132.37739124 271.53300042 -126.96863828 269.38727573 -121.55975723 267.24187469 C-119.4607496 266.40933994 -117.36170846 265.57688971 -115.26266479 264.7444458 C-105.51041722 260.8766343 -95.75981374 257.00469617 -86.01004982 253.13062859 C-83.68516836 252.2068549 -81.36025223 251.28316853 -79.0353241 250.35951233 C-77.50198355 249.75033592 -75.9686431 249.14115928 -74.43530273 248.53198242 C-73.68234515 248.23284345 -72.92938757 247.93370447 -72.15361309 247.62550068 C-68.45262708 246.15509883 -64.7517369 244.6844567 -61.05105591 243.21328735 C-59.63177547 242.64910746 -58.21249447 242.08492898 -56.79321289 241.52075195 C-56.10555627 241.24735961 -55.41789965 240.97396727 -54.70940495 240.69229031 C-51.39583689 239.37531909 -48.08154178 238.06024144 -44.76545715 236.74961853 C-39.34711482 234.60779355 -33.932853 232.45997662 -28.54150391 230.25097656 C-27.71016434 229.91490387 -26.87882477 229.57883118 -26.02229309 229.23257446 C-24.56281486 228.64220916 -23.10680464 228.04313386 -21.6558075 227.43222046 C-13.4721041 224.15211661 -7.73960348 225.76537293 0 229 C0.91315475 229.36977966 1.82630951 229.73955933 2.76713562 230.12054443 C4.77031702 230.93330762 6.77125243 231.75162287 8.77020264 232.57473755 C13.1950062 234.396379 17.63078063 236.1906271 22.06567383 237.98753357 C24.47787568 238.96540109 26.88948139 239.94474025 29.30053711 240.9254303 C38.45419456 244.64834654 47.62738445 248.32027712 56.8125 251.96484375 C57.49474514 252.23558149 58.17699028 252.50631924 58.87990952 252.78526115 C65.22253612 255.30161939 71.56675828 257.81394688 77.91101074 260.32620239 C82.23784104 262.03964791 86.56433432 263.75394248 90.890625 265.46875 C91.6122797 265.75471605 92.3339344 266.04068211 93.07745743 266.3353138 C103.13632982 270.3224805 113.18159688 274.34233957 123.21740723 278.38719177 C128.75640501 280.61960444 134.29870014 282.84377698 139.84173203 285.06615162 C144.37624425 286.88509889 148.9060653 288.71515191 153.4327898 290.55338764 C156.2278554 291.68528895 159.02712926 292.80646471 161.82769585 293.9246769 C163.12597317 294.4456329 164.42245546 294.97108801 165.71696663 295.50133324 C167.48610268 296.22533197 169.26231477 296.93196765 171.03881836 297.63769531 C172.52652992 298.23834808 172.52652992 298.23834808 174.04429626 298.85113525 C179.41264598 300.27551337 184.09877379 297.80084496 189.078125 295.8359375 C189.78722015 295.55978104 190.49631531 295.28362457 191.22689819 294.99909973 C193.55528495 294.09086253 195.88120245 293.17648457 198.20703125 292.26171875 C199.85433093 291.61698338 201.50171161 290.97245491 203.14916992 290.328125 C215.02441798 285.67757172 226.87596636 280.96888307 238.70703125 276.20703125 C245.15037582 273.61395604 251.60577086 271.05187905 258.06391907 268.49591064 C262.48975528 266.7440928 266.91359958 264.98726781 271.33706188 263.22946548 C274.52470268 261.96310517 277.71331745 260.69932058 280.90420532 259.44116211 C284.50420866 258.0215961 288.09987073 256.59123878 291.6953125 255.16015625 C292.79798462 254.72734344 293.90065674 254.29453064 295.03674316 253.84860229 C296.04209106 253.446586 297.04743896 253.0445697 298.08325195 252.63037109 C299.40979546 252.10508316 299.40979546 252.10508316 300.76313782 251.56918335 C302.93648479 250.7425008 302.93648479 250.7425008 303.76953125 248.57421875 C303.23052689 248.36362823 302.69152252 248.15303772 302.13618469 247.93606567 C278.50540678 238.70175216 254.87930221 229.45732093 231.33203125 220.01171875 C212.74329244 212.55597373 194.13550767 205.14911515 175.51953125 197.76171875 C174.07137899 197.18700565 172.62322836 196.61228843 171.17507935 196.03756714 C165.25263194 193.68717773 159.33014678 191.33688348 153.40757751 188.98680115 C137.45370972 182.65611964 121.50256386 176.31859026 105.55148697 169.98088074 C98.73750826 167.27356463 91.92345778 164.56642916 85.109375 161.859375 C83.98694177 161.41346071 83.98694177 161.41346071 82.84183311 160.95853806 C71.02792005 156.26523866 59.21335469 151.5735835 47.3984375 146.8828125 C46.21601282 146.41335897 46.21601282 146.41335897 45.00970078 145.93442154 C37.42036321 142.92126264 29.83098162 139.90821473 22.24144077 136.89556789 C19.4900679 135.80339269 16.73873471 134.71111758 13.98740959 133.6188221 C12.12718775 132.88034393 10.26691073 132.14200478 8.40663147 131.40367126 C7.27865646 130.95584793 6.15068146 130.5080246 4.98852539 130.04663086 C3.93174591 129.62888397 2.87496643 129.21113708 1.78616333 128.7807312 C-0.19320437 127.98907623 -2.16662007 127.18233893 -4.13308716 126.35916138 C-5.01672943 125.9912851 -5.9003717 125.62340881 -6.81079102 125.24438477 C-7.57263199 124.92075455 -8.33447296 124.59712433 -9.11940002 124.26368713 C-13.94395759 122.68800186 -17.33416676 124.23022601 -21.8046875 126.0546875 Z M-21.23828125 239.828125 C-22.15564308 240.19929947 -22.15564308 240.19929947 -23.09153748 240.57797241 C-24.45091227 241.12875873 -25.809021 241.68267706 -27.16604614 242.23922729 C-30.24116466 243.49978457 -33.32281105 244.74402356 -36.40412903 245.98933411 C-38.13845478 246.69027575 -39.87248303 247.39195387 -41.60624695 248.09428406 C-52.42192056 252.47169955 -63.2719944 256.76227553 -74.1204834 261.05755615 C-77.81924116 262.52212161 -81.51761009 263.98766598 -85.21582031 265.45361328 C-90.29138421 267.46547145 -95.36706392 269.47703695 -100.44287109 271.48828125 C-111.60579194 275.91156385 -122.76818242 280.33618417 -133.93020725 284.76172733 C-138.21837801 286.46188855 -142.50674777 288.1615471 -146.79516602 289.86108398 C-159.9496372 295.07552065 -173.09631421 300.30880836 -186.23046875 305.57421875 C-186.23046875 306.23421875 -186.23046875 306.89421875 -186.23046875 307.57421875 C-185.44849121 307.87489258 -184.66651367 308.17556641 -183.86083984 308.48535156 C-180.78454884 309.66933207 -177.70897838 310.85515442 -174.63378906 312.04199219 C-172.71859733 312.78059045 -170.80268042 313.51730754 -168.88671875 314.25390625 C-158.27058026 318.34715584 -147.70754986 322.57154387 -137.1461792 326.80363464 C-128.17225672 330.39939242 -119.19258238 333.98027744 -110.20703125 337.546875 C-109.58570375 337.7936134 -108.96437626 338.04035179 -108.32422066 338.29456711 C-101.7932091 340.88812606 -95.26072891 343.47789358 -88.72432232 346.0578289 C-85.26627398 347.42280172 -81.80879369 348.78920897 -78.3515625 350.15625 C-77.67032885 350.42554699 -76.98909519 350.69484398 -76.28721809 350.97230148 C-67.92428997 354.28098098 -59.58765204 357.6435657 -51.28082275 361.09104919 C-46.86246612 362.92405134 -42.43591902 364.73676837 -38.00872803 366.54830933 C-35.96743349 367.39098477 -33.93054365 368.24441982 -31.89849854 369.10916138 C-29.10679213 370.29662083 -26.30224766 371.44664604 -23.4921875 372.58984375 C-22.69394058 372.94153122 -21.89569366 373.29321869 -21.07325745 373.65556335 C-14.59850231 376.22127541 -10.55610167 375.11265068 -4.23046875 372.57421875 C-3.1437236 372.16250427 -2.05697845 371.75078979 -0.93730164 371.32659912 C2.94874093 369.8355367 6.81278753 368.29554788 10.67578125 366.74609375 C12.13965943 366.16260331 13.60369345 365.5795037 15.06787109 364.99676514 C18.18302236 363.75604856 21.29712582 362.51275211 24.41040039 361.26733398 C29.31945363 359.30357646 34.23080881 357.34562428 39.14257812 355.38867188 C44.98906831 353.05893653 50.83508088 350.72801171 56.68041229 348.39537048 C71.20183936 342.60075292 85.73465187 336.83499262 100.26953125 331.07421875 C102.64633004 330.1317758 105.02312054 329.18931196 107.39990234 328.24682617 C124.84622454 321.32997582 142.30135779 314.43570434 159.76953125 307.57421875 C159.76953125 306.91421875 159.76953125 306.25421875 159.76953125 305.57421875 C129.37955811 293.38818617 98.95561638 281.28920506 68.51548767 269.22906494 C54.4087437 263.63985977 40.30496978 258.04317099 26.20135498 252.44607544 C22.69804195 251.0557679 19.19467817 249.66558831 15.69129658 248.27545357 C13.07580389 247.23761724 10.46033649 246.19971717 7.84487724 245.16179657 C6.05008741 244.44956386 4.25527625 243.73738492 2.46046448 243.02520752 C1.38449509 242.59818542 0.3085257 242.17116333 -0.80004883 241.73120117 C-1.73319412 241.36089279 -2.66633942 240.99058441 -3.62776184 240.60905457 C-5.37077473 239.91603294 -7.10187882 239.19232117 -8.81987 238.43940735 C-13.56813539 236.73520624 -16.78956129 238.00873908 -21.23828125 239.828125 Z M-355.19262695 258.38061523 C-356.19246109 258.78130722 -357.19229523 259.18199921 -358.22242737 259.59483337 C-359.31433884 260.04049149 -360.40625031 260.4861496 -361.53125 260.9453125 C-362.68781601 261.41074966 -363.84438202 261.87618683 -365.03599548 262.35572815 C-367.55337998 263.36966355 -370.06963881 264.38598623 -372.58435059 265.40649414 C-376.56553571 267.02196718 -380.55038031 268.62825587 -384.53613281 270.23242188 C-385.90560914 270.78366087 -387.27508546 271.33489988 -388.64456177 271.88613892 C-389.67515402 272.30093443 -389.67515402 272.30093443 -390.72656631 272.72410965 C-392.84897368 273.57870732 -394.97101659 274.43420463 -397.09298706 275.28988647 C-412.49404401 281.49816505 -427.92912767 287.62027116 -443.36684799 293.73668289 C-446.86761394 295.12388398 -450.36799392 296.51205831 -453.8684082 297.90014648 C-460.32203505 300.45916344 -466.77608315 303.01711606 -473.23046875 305.57421875 C-473.23046875 306.23421875 -473.23046875 306.89421875 -473.23046875 307.57421875 C-472.69527618 307.78623428 -472.16008362 307.99824982 -471.6086731 308.21669006 C-465.70204106 310.55661521 -459.79546567 312.8966833 -453.88891602 315.23681641 C-451.5336216 316.16995108 -449.17831561 317.10305656 -446.82299805 318.03613281 C-433.29474569 323.39549764 -419.76731211 328.75690916 -406.24245834 334.1248455 C-404.26299568 334.91045508 -402.28349749 335.69597505 -400.3039856 336.48146057 C-399.65697882 336.73819896 -399.00997204 336.99493734 -398.34335899 337.25945568 C-397.04814481 337.77340644 -395.75292921 338.28735363 -394.45771217 338.80129719 C-391.29817288 340.0550636 -388.1387446 341.30910838 -384.97955322 342.56375122 C-381.42801554 343.97409709 -377.87614626 345.38360499 -374.32421875 346.79296875 C-373.2907431 347.20365097 -372.25726746 347.61433319 -371.19247437 348.03746033 C-369.21690762 348.82100765 -367.23961946 349.60023097 -365.26049805 350.37475586 C-363.08701572 351.23514734 -360.92274786 352.11895659 -358.76489258 353.01782227 C-357.61722412 353.48567139 -356.46955566 353.95352051 -355.28710938 354.43554688 C-354.24768188 354.86806763 -353.20825439 355.30058838 -352.1373291 355.74621582 C-346.5772005 357.32998739 -341.88607345 354.78132625 -336.7265625 352.70703125 C-335.96363892 352.4043483 -335.20071533 352.10166534 -334.41467285 351.78981018 C-331.83083983 350.76358373 -329.24944896 349.73134801 -326.66796875 348.69921875 C-324.82055727 347.96418882 -322.972977 347.22958301 -321.12524414 346.49536133 C-316.93161613 344.82826959 -312.73898641 343.15869457 -308.546875 341.48779297 C-300.23623714 338.17659494 -291.92089129 334.87728488 -283.60546875 331.578125 C-280.53196867 330.35859585 -277.45848692 329.13902051 -274.38500977 327.91943359 C-273.62249436 327.61686394 -272.85997896 327.31429428 -272.07435703 327.00255585 C-264.59423472 324.03428793 -257.11469477 321.06455477 -249.63557434 318.09376335 C-248.28093755 317.55569909 -246.9262832 317.01767902 -245.5716095 316.47970772 C-242.53510443 315.27382383 -239.49909141 314.0667959 -236.46481323 312.85531616 C-234.36698584 312.02438388 -232.26410535 311.20605519 -230.1555481 310.40274048 C-228.7899324 309.87817764 -228.7899324 309.87817764 -227.39672852 309.34301758 C-226.60959976 309.04639725 -225.82247101 308.74977692 -225.01148987 308.44416809 C-223.04334282 307.7061308 -223.04334282 307.7061308 -222.23046875 305.57421875 C-222.85431961 305.32968964 -223.47817047 305.08516052 -224.1209259 304.83322144 C-277.0220273 284.09550322 -277.0220273 284.09550322 -297.16796875 276.01171875 C-298.52389372 275.46834446 -299.87985045 274.92504942 -301.23583984 274.38183594 C-306.76344948 272.16707601 -312.29081937 269.95173609 -317.81640625 267.73193359 C-321.69004802 266.17666218 -325.5666106 264.62886697 -329.44509888 263.08572388 C-330.90953585 262.50169019 -332.37300427 261.91522116 -333.8354187 261.32614136 C-335.83832747 260.51965278 -337.8444455 259.72172742 -339.8515625 258.92578125 C-340.99036865 258.47025879 -342.1291748 258.01473633 -343.30249023 257.54541016 C-347.88367582 256.02586073 -350.86881529 256.63036287 -355.19262695 258.38061523 Z M314.484375 258.48828125 C313.41493149 258.91217636 312.34548798 259.33607147 311.24363708 259.77281189 C310.07655716 260.24352615 308.90947723 260.71424042 307.70703125 261.19921875 C306.46333476 261.69517636 305.2193965 262.1905281 303.97523499 262.68531799 C300.6050399 264.02759447 297.23828712 265.37831522 293.87208939 266.73057938 C290.35866331 268.14032141 286.84213733 269.54228709 283.32592773 270.94506836 C276.71121325 273.58534898 270.09929719 276.23256304 263.48839283 278.88236713 C256.12276272 281.83430671 248.7540918 284.77861581 241.38508987 287.72212601 C226.50977462 293.66418619 211.63834239 299.61590037 196.76953125 305.57421875 C196.76953125 306.23421875 196.76953125 306.89421875 196.76953125 307.57421875 C197.71602539 307.94780518 198.66251953 308.3213916 199.63769531 308.70629883 C204.43196766 310.59894443 209.22580924 312.49267975 214.01953125 314.38671875 C214.93236877 314.74737427 215.8452063 315.10802979 216.78570557 315.47961426 C230.29860503 320.819522 243.80548651 326.17445324 257.30859375 331.5390625 C258.06321396 331.83883814 258.81783417 332.13861378 259.59532166 332.44747353 C267.2005016 335.46866316 274.80545991 338.49040805 282.4096241 341.51415348 C285.29940853 342.66310138 288.18942095 343.81147505 291.07947922 344.95973396 C292.42352012 345.49389684 293.76746021 346.02831347 295.11128616 346.56301689 C298.16616717 347.77850973 301.22251286 348.98981273 304.28265381 350.1920166 C306.66044991 351.13457766 309.02992447 352.09834014 311.3916626 353.08044434 C312.54003601 353.54857544 313.68840942 354.01670654 314.87158203 354.49902344 C316.39635666 355.13405792 316.39635666 355.13405792 317.95193481 355.78192139 C323.55887137 357.35857055 328.43105109 354.6540879 333.625 352.56640625 C334.80971893 352.0962484 334.80971893 352.0962484 336.01837158 351.61659241 C338.66617839 350.56474381 341.31156568 349.50694043 343.95703125 348.44921875 C345.83780391 347.70083067 347.7187491 346.95287606 349.59985352 346.20532227 C353.7242412 344.56573192 357.84772202 342.92388572 361.97070312 341.28076172 C369.24912502 338.38151035 376.53246856 335.49472998 383.81640625 332.609375 C385.1054565 332.0986811 386.39450374 331.58797959 387.68354797 331.07727051 C389.61565198 330.31179282 391.54775715 329.54631806 393.4798708 328.78086472 C411.25396928 321.73908325 429.0242492 314.68835842 446.76953125 307.57421875 C446.76953125 306.91421875 446.76953125 306.25421875 446.76953125 305.57421875 C438.395216 302.21834173 430.02018052 298.86426489 421.64453125 295.51171875 C421.01939259 295.26149208 420.39425392 295.01126541 419.75017166 294.75345612 C402.07723325 287.68001472 384.3953691 280.63034469 366.67773438 273.66943359 C359.41091007 270.81275029 352.15600025 267.93081015 344.921875 264.9921875 C343.50921574 264.4200358 342.09653714 263.84793185 340.68383789 263.27587891 C338.06914429 262.21678126 335.45827137 261.1489453 332.84936523 260.07568359 C331.70669189 259.61242676 330.56401855 259.14916992 329.38671875 258.671875 C328.39269043 258.26461182 327.39866211 257.85734863 326.37451172 257.43774414 C321.8230018 255.92896339 318.76452657 256.77622062 314.484375 258.48828125 Z M-210.89013672 315.21972656 C-211.81523041 315.58187759 -212.7403241 315.94402863 -213.69345093 316.31715393 C-214.69308868 316.71651657 -215.69272644 317.11587921 -216.72265625 317.52734375 C-217.76733063 317.93858994 -218.812005 318.34983612 -219.88833618 318.77354431 C-223.29667447 320.11722129 -226.70107322 321.47058691 -230.10546875 322.82421875 C-232.4600753 323.7548476 -234.81489387 324.68494015 -237.16992188 325.61450195 C-243.86063623 328.25804871 -250.5465952 330.91342872 -257.23046875 333.57421875 C-258.45183533 334.06036652 -258.45183533 334.06036652 -259.69787598 334.55633545 C-265.15521803 336.72965513 -270.60982552 338.90973012 -276.06054688 341.09960938 C-287.55818557 345.71831894 -299.08156575 350.27151489 -310.60546875 354.82421875 C-312.07536255 355.40494644 -312.07536255 355.40494644 -313.57495117 355.99740601 C-319.12646481 358.19050196 -324.67832213 360.3827258 -330.23046875 362.57421875 C-327.96325534 365.13305167 -325.94008656 366.30242889 -322.76367188 367.52856445 C-321.85436417 367.88414429 -320.94505646 368.23972412 -320.00819397 368.6060791 C-319.01935715 368.983573 -318.03052032 369.36106689 -317.01171875 369.75 C-315.4641111 370.35189148 -315.4641111 370.35189148 -313.88523865 370.96594238 C-311.66351068 371.82902973 -309.44038662 372.68853009 -307.21603394 373.54483032 C-302.51072462 375.35630128 -297.8121239 377.18487552 -293.11302185 379.01237488 C-290.75543598 379.92898824 -288.39749465 380.84468789 -286.03919983 381.75947571 C-277.05840258 385.2440767 -268.10446063 388.79030362 -259.16796875 392.38671875 C-256.39750858 393.49962891 -253.62659401 394.61140325 -250.85546875 395.72265625 C-250.1271434 396.01473969 -249.39881805 396.30682312 -248.64842224 396.60775757 C-237.00085514 401.27397811 -225.3326931 405.88860727 -213.66796875 410.51171875 C-212.41741829 411.00739254 -211.16686898 411.50306923 -209.9163208 411.99874878 C-204.19423966 414.26675835 -198.47204192 416.53447354 -192.74974251 418.80193233 C-181.20412875 423.37689364 -169.65958922 427.95456325 -158.11520386 432.53262329 C-154.53003409 433.95434808 -150.94482811 435.37598149 -147.35961914 436.79760742 C-137.34884385 440.76728338 -127.33825962 444.73743915 -117.32861328 448.70996094 C-116.6666243 448.97267477 -116.00463531 449.2353886 -115.32258606 449.50606346 C-111.95446774 450.84277976 -108.58647436 452.17980961 -105.21868896 453.5173645 C-98.53890435 456.16999889 -91.85747228 458.81833013 -85.17236328 461.45751953 C-82.57041494 462.48543898 -79.96870877 463.51396895 -77.3671875 464.54296875 C-76.73039314 464.79479794 -76.09359879 465.04662712 -75.43750763 465.30608749 C-67.40051143 468.48739649 -59.39137809 471.72764299 -51.40771484 475.04119873 C-46.95653826 476.88732218 -42.49709232 478.71295326 -38.03692627 480.53723145 C-35.98362365 481.38449352 -33.934738 482.24255323 -31.89080811 483.11218262 C-29.10164601 484.29858636 -26.29967627 485.44763551 -23.4921875 486.58984375 C-22.29502861 487.11729187 -22.29502861 487.11729187 -21.07368469 487.65539551 C-14.59869556 490.22119618 -10.55636334 489.11275569 -4.23046875 486.57421875 C-3.1437236 486.16250427 -2.05697845 485.75078979 -0.93730164 485.32659912 C2.94874081 483.83553674 6.81278802 482.29554873 10.67578125 480.74609375 C12.13828609 480.1631525 13.6009468 479.58060217 15.06375122 478.99841309 C18.17752985 477.75824745 21.29025934 476.51549864 24.40216064 475.27062988 C29.33593283 473.29698422 34.27201321 471.32915881 39.20849609 469.36230469 C45.07875516 467.02304372 50.94854236 464.68260761 56.81765556 462.34047318 C69.51042013 457.2755901 82.21260829 452.23474034 94.91796875 447.20153809 C100.76736685 444.88416594 106.61607279 442.56504816 112.46484375 440.24609375 C113.62558411 439.78591858 114.78632446 439.32574341 115.98223877 438.85162354 C124.76353183 435.37012492 133.54405901 431.88669926 142.32421875 428.40234375 C142.97861057 428.14265368 143.6330024 427.8829636 144.30722427 427.61540413 C150.95197308 424.97846282 157.59664051 422.34131652 164.2412281 419.703969 C167.54230496 418.39373088 170.84340874 417.0835606 174.14453125 415.7734375 C174.79616116 415.51482374 175.44779106 415.25620998 176.11916733 414.98975945 C186.8720588 410.7224168 197.62708725 406.46048939 208.38282776 402.20033264 C217.90481448 398.42844066 227.42472525 394.65133907 236.94334412 390.87095642 C243.83213912 388.13543428 250.72293023 385.4050342 257.61556816 382.67921543 C262.8224162 380.61960804 268.02717811 378.55478552 273.23048592 376.48625088 C276.32268303 375.25717609 279.41603445 374.03124191 282.51123047 372.8097229 C285.90327525 371.47063719 289.29184683 370.12311701 292.6796875 368.7734375 C293.69325821 368.3756308 294.70682892 367.9778241 295.75111389 367.56796265 C296.66735031 367.20095245 297.58358673 366.83394226 298.52758789 366.45581055 C299.32749649 366.13879684 300.12740509 365.82178314 300.95155334 365.49516296 C302.95008673 364.70960288 302.95008673 364.70960288 303.76953125 362.57421875 C303.03975571 362.28481415 302.30998016 361.99540955 301.55809021 361.69723511 C296.60579156 359.73319987 291.65352298 357.7690901 286.70172119 355.80380249 C285.25972517 355.23150575 283.81772891 354.65920962 282.37573242 354.08691406 C281.63406389 353.79255526 280.89239536 353.49819645 280.12825203 353.19491768 C275.50976388 351.36216875 270.89046738 349.53147391 266.27060413 347.70219421 C251.22707407 341.74468611 236.19144377 335.77199493 221.21455193 329.64854813 C218.03072643 328.34800718 214.84444567 327.05350737 211.65844727 325.75830078 C208.0770284 324.30233889 204.49823476 322.84128653 200.92648315 321.36175537 C197.65460189 320.0066671 194.37527422 318.67137281 191.09375 317.33984375 C189.66702972 316.73878311 189.66702972 316.73878311 188.21148682 316.12557983 C179.39015262 312.58781642 173.47397118 314.42080761 164.9765625 317.87890625 C163.67355446 318.39809128 163.67355446 318.39809128 162.34422302 318.92776489 C159.4206163 320.09452559 156.5014533 321.27203055 153.58203125 322.44921875 C151.46419274 323.29638722 149.3460184 324.14271655 147.22753906 324.98828125 C142.58021947 326.84404252 137.93445393 328.70362886 133.28955078 330.56542969 C125.48610254 333.6917992 117.67346237 336.79486759 109.859375 339.89453125 C108.47928309 340.44210166 107.09919175 340.98967349 105.71910095 341.5372467 C100.06011228 343.78231605 94.40082495 346.02663182 88.74130249 348.27035522 C84.39886188 349.992012 80.05673544 351.71445935 75.71484375 353.4375 C74.98998842 353.72512144 74.26513309 354.01274288 73.51831245 354.30908012 C63.44926278 358.30556493 53.39033442 362.32665709 43.33837891 366.36593628 C37.80953749 368.58753635 32.27804208 370.80249326 26.74593353 373.01594353 C22.22360688 374.82610111 17.70501788 376.64521033 13.18897057 378.47097301 C10.39735941 379.59707321 7.60236875 380.71458153 4.80636978 381.82973671 C3.51203335 382.3480244 2.21912457 382.8698941 0.9277916 383.39562035 C-0.83970124 384.11466876 -2.61285414 384.81975675 -4.38623047 385.52416992 C-5.37581757 385.92238449 -6.36540466 386.32059906 -7.38497925 386.73088074 C-12.97173891 388.38666853 -16.96396973 387.5800821 -22.26708984 385.39086914 C-23.43768951 384.91443466 -24.60828918 384.43800018 -25.81436157 383.9471283 C-27.08588739 383.41790344 -28.35740195 382.88865154 -29.62890625 382.359375 C-30.96870868 381.81100843 -32.30900051 381.26383624 -33.64974976 380.7177887 C-36.44967333 379.57682759 -39.24776362 378.43152814 -42.0447998 377.2835083 C-47.9148168 374.87988376 -53.81179144 372.54476568 -59.70987701 370.21107674 C-62.33495901 369.17203117 -64.95889446 368.13010595 -67.58286667 367.0882616 C-69.61340054 366.28207913 -71.64408184 365.47626906 -73.67480469 364.67056274 C-77.99561498 362.95618344 -82.31618068 361.24118826 -86.63671875 359.52612305 C-92.72680613 357.10868037 -98.81697931 354.69145396 -104.90722656 352.27441406 C-118.12429733 347.02892409 -131.3411011 341.78276164 -144.55757332 336.53576374 C-148.92432294 334.8021612 -153.29116827 333.06880013 -157.65812111 331.33570957 C-159.71571994 330.51904241 -161.77322433 329.70213767 -163.83071899 328.88520813 C-166.42858642 327.85378142 -169.02690549 326.82350503 -171.62557983 325.79411316 C-177.24653167 323.56520156 -182.86127933 321.32423854 -188.45703125 319.03271484 C-189.39087646 318.65213425 -190.32472168 318.27155365 -191.28686523 317.87944031 C-192.97634014 317.18932383 -194.66357157 316.49367475 -196.34790039 315.79109192 C-201.84063755 313.5516348 -205.37102944 313.03639344 -210.89013672 315.21972656 Z M-355.08837891 372.32055664 C-356.06415894 372.70762283 -357.03993896 373.09468903 -358.04528809 373.4934845 C-359.10928833 373.92360336 -360.17328857 374.35372223 -361.26953125 374.796875 C-362.3949231 375.24540329 -363.52031494 375.69393158 -364.67980957 376.15605164 C-367.12540628 377.13179511 -369.56986492 378.1099516 -372.01275635 379.09240723 C-375.87937618 380.64740039 -379.74965358 382.19313289 -383.62060547 383.73730469 C-388.3524381 385.62557494 -393.08338612 387.51602998 -397.81323433 389.40926552 C-410.06576203 394.31323075 -422.33273421 399.18065093 -434.60172081 404.04326344 C-439.01594144 405.79279171 -443.42928448 407.54451579 -447.84228516 409.29711914 C-450.16177205 410.21764043 -452.48127015 411.13813347 -454.80078125 412.05859375 C-455.84415649 412.47324387 -456.88753174 412.88789398 -457.96252441 413.31510925 C-463.36550692 415.45769917 -468.78041513 417.55424049 -474.23046875 419.57421875 C-470.78871112 422.50430466 -466.99284475 424.03422248 -462.82421875 425.63671875 C-461.68199356 426.08479889 -461.68199356 426.08479889 -460.51669312 426.54193115 C-458.82888763 427.20328166 -457.13997502 427.86181164 -455.45013428 428.51794434 C-451.63722695 429.99881631 -447.82997889 431.49401181 -444.02218628 432.98797607 C-441.89755949 433.82139149 -439.77265109 434.65408927 -437.64749146 435.48614502 C-424.87652878 440.4883228 -412.13182475 445.5564463 -399.38623047 450.62280273 C-395.04687162 452.34765379 -390.70707299 454.07139639 -386.3671875 455.79492188 C-378.08302014 459.08493994 -369.79912618 462.37564591 -361.51530457 465.66653442 C-358.47827205 466.87303985 -355.44122642 468.07951228 -352.40418053 469.28598404 C-340.20931261 474.13041847 -328.01447515 478.97492957 -315.81976128 483.81975174 C-295.32429631 491.96235529 -274.82786234 500.1025143 -254.3305397 508.24044037 C-230.99746044 517.50423073 -207.66524439 526.77019039 -184.33415604 536.03899384 C-182.04567972 536.94814176 -179.75719998 537.85728106 -177.46871948 538.76641846 C-164.37718136 543.96726494 -151.28566785 549.1681734 -138.19446945 554.36987495 C-136.62599646 554.9930931 -135.05751755 555.61629637 -133.48903275 556.23948479 C-129.57326287 557.79531504 -125.65759373 559.35139784 -121.74212646 560.9079895 C-114.06059081 563.96142582 -106.37735849 567.01045749 -98.69042969 570.05029297 C-95.70355092 571.23217939 -92.71691664 572.4146815 -89.73046875 573.59765625 C-88.99946205 573.88717037 -88.26845535 574.17668449 -87.51529694 574.47497177 C-77.37623354 578.49382223 -67.2735449 582.59391722 -57.19177437 586.75424576 C-53.14415455 588.42085158 -49.0902399 590.07209133 -45.03604031 591.7226162 C-41.88034957 593.00923815 -38.73021422 594.30682918 -35.59060669 595.63226318 C-32.18020882 597.06708931 -28.75672267 598.46481744 -25.328125 599.85546875 C-23.85055725 600.49508041 -23.85055725 600.49508041 -22.34313965 601.14761353 C-15.22969797 603.97123263 -11.18881014 603.50588626 -4.23046875 600.57421875 C-3.15732925 600.16303802 -2.08418976 599.7518573 -0.97853088 599.32821655 C2.84499507 597.85478955 6.64342735 596.32670742 10.44140625 594.7890625 C11.87045798 594.21440847 13.29968701 593.64019517 14.7290802 593.06639099 C17.75701887 591.8500985 20.78395592 590.63136102 23.81008911 589.4105835 C30.95974434 586.52667664 38.11475724 583.65611062 45.26979256 580.7855835 C46.8622817 580.146669 48.45471299 579.50761029 50.04708672 578.8684082 C63.44748009 573.48983775 76.87547465 568.1858469 90.33203125 562.94921875 C104.54717587 557.41268163 118.73568332 551.81574806 132.89453125 546.13671875 C151.58751818 538.63950466 170.29926147 531.19046851 189.01953125 523.76171875 C190.46890465 523.18651847 191.91827598 522.61131296 193.36764526 522.03610229 C199.29644875 519.68316536 205.2252902 517.33032408 211.15422058 514.97770691 C226.99663908 508.69124574 242.83657409 502.39853656 258.67631912 496.10534286 C262.49179167 494.58946033 266.30729818 493.0736633 270.12280273 491.55786133 C279.33840892 487.89672269 288.5539732 484.23547856 297.76953125 480.57421875 C300.84537713 479.35221235 303.9212235 478.13020718 306.99707031 476.90820312 C307.75782584 476.60596171 308.51858137 476.3037203 309.3023901 475.99232006 C313.14282908 474.46655271 316.98327799 472.94081033 320.82374573 471.41511536 C322.35751362 470.80579678 323.89128132 470.19647773 325.42504883 469.5871582 C326.18315133 469.28598744 326.94125383 468.98481668 327.72232914 468.67451954 C332.2666375 466.86917257 336.8108519 465.06358934 341.35499287 463.25782108 C356.8135996 457.11489102 372.27391842 450.97633637 387.73859215 444.84869385 C392.47377863 442.97223533 397.20859512 441.09484334 401.94341373 439.21745682 C406.42206832 437.44179315 410.90136677 435.66776675 415.38116932 433.89500141 C418.13685765 432.8040665 420.89193181 431.71158723 423.64684486 430.61869621 C425.51260626 429.87908349 427.37911468 429.14135606 429.24565125 428.40370178 C435.4845679 425.92692185 441.66630328 423.36998473 447.76953125 420.57421875 C444.86554613 418.63822867 442.26087975 417.47825595 439.02587891 416.19555664 C437.84520844 415.72540634 436.66453796 415.25525604 435.4480896 414.77085876 C434.15161605 414.25863405 432.85511668 413.74647469 431.55859375 413.234375 C430.20817854 412.69807182 428.85788981 412.16145005 427.50772095 411.62452698 C424.68107524 410.50112249 421.85363139 409.37976185 419.0255127 408.2600708 C414.96558666 406.65253384 410.90778919 405.03968742 406.85058594 403.42529297 C399.61451967 400.54667904 392.37613026 397.67394256 385.13726807 394.80236816 C383.14153289 394.01052911 381.14593652 393.21834132 379.15039062 392.42602539 C378.49169353 392.16451376 377.83299644 391.90300213 377.15433884 391.6335659 C375.82555464 391.10598624 374.49680146 390.57832849 373.16807938 390.05059242 C369.8931412 388.750306 366.61721566 387.45262262 363.33905029 386.16049194 C357.47751685 383.84858382 351.62318833 381.52413018 345.79668999 379.12501812 C343.2281344 378.06915966 340.65473438 377.02544192 338.08067703 375.98307991 C336.29693503 375.25512364 334.52020642 374.51005573 332.7437439 373.76451111 C321.94763456 369.40809698 315.77759998 371.70462311 305.3515625 375.97265625 C303.64787003 376.65878746 303.64787003 376.65878746 301.90975952 377.35877991 C299.43582606 378.35608882 296.96319062 379.35608674 294.49227905 380.36080933 C290.5082898 381.98052008 286.51987319 383.5891161 282.53051758 385.19555664 C281.14689259 385.75281351 279.76327141 386.31007983 278.37965393 386.86735535 C277.68543398 387.14694784 276.99121403 387.42654034 276.27595711 387.71460533 C274.13104467 388.57889494 271.98654566 389.44420315 269.84214783 390.30976868 C254.94735502 396.32025679 240.01984566 402.24756291 225.08852768 408.16660309 C221.5051009 409.58739369 217.92212057 411.00930919 214.33911133 412.43115234 C208.61347736 414.70313134 202.88764254 416.97460321 197.16162109 419.24560547 C189.05789053 422.45966037 180.95464798 425.67494416 172.8515625 428.890625 C171.54777028 429.40802535 170.24397796 429.92542546 168.94018555 430.44282532 C166.99243181 431.21577716 165.04467861 431.98873036 163.09692764 432.76168919 C158.55864417 434.56268235 154.02030159 436.36352648 149.48193359 438.16430664 C134.60769301 444.06631354 119.73371906 449.96899176 104.86120605 455.87535095 C98.49620195 458.40303642 92.13101308 460.93024664 85.76443863 463.45397472 C82.23860475 464.85165592 78.71299421 466.24989976 75.1875 467.6484375 C74.48608383 467.92667421 73.78466766 468.20491093 73.06199646 468.49157906 C63.16754105 472.41774368 53.28366575 476.36965076 43.40635681 480.33874512 C37.8628849 482.56620793 32.31675195 484.78701002 26.77000904 487.00631332 C22.23824018 488.82024558 17.71019712 490.64309939 13.18472195 492.47267246 C10.39421188 493.59833105 7.6003233 494.71540022 4.80542564 495.83011436 C3.51148979 496.34824192 2.21898207 496.86995271 0.92804909 497.39551735 C-0.83952944 498.11460044 -2.61276833 498.81972234 -4.38623047 499.52416992 C-5.37581757 499.92238449 -6.36540466 500.32059906 -7.38497925 500.73088074 C-12.97173891 502.38666853 -16.96396973 501.5800821 -22.26708984 499.39086914 C-23.43768951 498.91443466 -24.60828918 498.43800018 -25.81436157 497.9471283 C-27.08588739 497.41790344 -28.35740195 496.88865154 -29.62890625 496.359375 C-30.96870868 495.81100843 -32.30900051 495.26383624 -33.64974976 494.7177887 C-36.44967333 493.57682759 -39.24776362 492.43152814 -42.0447998 491.2835083 C-47.91509017 488.87977183 -53.81234076 486.54454824 -59.71070099 484.21075058 C-62.33234976 483.17306395 -64.95285212 482.13249814 -67.57339096 481.09201241 C-69.60268845 480.2863181 -71.63213368 479.48099702 -73.66162109 478.67578125 C-78.02197177 476.94572026 -82.38209276 475.21508089 -86.7421875 473.484375 C-92.09972682 471.35777926 -97.45731423 469.23130475 -102.81496811 467.10499763 C-112.33663245 463.32609218 -121.8578945 459.54617435 -131.37890625 455.765625 C-132.07583525 455.48889261 -132.77276424 455.21216022 -133.4908123 454.92704201 C-136.29983724 453.81164604 -139.10885911 452.69624237 -141.91787624 451.58082676 C-146.84862466 449.62290614 -151.77940463 447.66506498 -156.71020508 445.70727539 C-157.41120236 445.42894206 -158.11219965 445.15060873 -158.83443928 444.86384106 C-160.25139613 444.30123381 -161.66835303 443.73862668 -163.08530998 443.17601967 C-174.47605691 438.65328066 -185.86672378 434.13034007 -197.25732231 429.60722733 C-210.71134551 424.2647481 -224.16549755 418.92259352 -237.61985779 413.58096313 C-239.01773083 413.02598093 -240.41560376 412.47099843 -241.81347656 411.91601562 C-242.50541894 411.64130117 -243.19736132 411.36658672 -243.91027164 411.08354759 C-248.15893807 409.39672523 -252.40755135 407.70976907 -256.65612221 406.02270603 C-259.51132677 404.88893532 -262.36654463 403.75519811 -265.22176743 402.62147331 C-266.63486923 402.06037106 -268.0479679 401.49926093 -269.46106339 400.93814278 C-276.92007938 397.97634309 -284.37951527 395.01561057 -291.84033203 392.05834961 C-292.47687651 391.80602916 -293.11342098 391.55370871 -293.76925468 391.29374218 C-296.86843146 390.06526341 -299.96762941 388.83683814 -303.06686401 387.60850525 C-309.31209737 385.13218172 -315.5542791 382.64853399 -321.79118347 380.15130615 C-324.96601048 378.88064235 -328.14266469 377.61459688 -331.31973267 376.34954834 C-332.69359019 375.80096446 -334.06649548 375.24998836 -335.43832397 374.6963501 C-337.23510965 373.9712315 -339.03540571 373.25482852 -340.8359375 372.5390625 C-341.79653076 372.15355225 -342.75712402 371.76804199 -343.74682617 371.37084961 C-348.05558539 369.98881075 -351.04441337 370.70008872 -355.08837891 372.32055664 Z " fill="#000000" transform="translate(553.23046875,248.42578125)"/>
</svg>
